<svg xmlns="http://www.w3.org/2000/svg" width="80" height="80" viewBox="0 0 80 80"><defs><linearGradient id="k7hia" x1="-38.75" x2="40" y1="40" y2="118.75" gradientUnits="userSpaceOnUse"><stop offset="0" stop-color="#ff8e64"/><stop offset="1" stop-color="#ffe641"/></linearGradient></defs><g><g><path fill="url(#k7hia)" d="M.63 40.005C.63 18.259 18.259.63 40.005.63S79.38 18.259 79.38 40.005 61.751 79.38 40.005 79.38.63 61.751.63 40.005zm63.712 23.887c6.04-6.152 9.765-14.585 9.765-23.887 0-18.834-15.268-34.102-34.102-34.102-18.834 0-34.102 15.268-34.102 34.102 0 9.311 3.732 17.75 9.781 23.904L37.28 14.78h5.45zm-10.187-9.034H25.942l-5.6 13.013a33.946 33.946 0 0 0 19.663 6.236c7.352 0 14.16-2.327 19.73-6.284zm-25.927-5.097h23.73L40.093 22.075z"/></g></g></svg>